<?xml version="1.0" encoding="UTF-8"?>
<svg width="24px" height="26px" viewBox="0 0 24 26" version="1.1" xmlns="http://www.w3.org/2000/svg" xmlns:xlink="http://www.w3.org/1999/xlink">
    <title>Group 36</title>
    <g id="Icons" stroke="none" stroke-width="1" fill="none" fill-rule="evenodd">
        <g id="Grey" transform="translate(-720.000000, -2213.000000)" fill="#787878" fill-rule="nonzero">
            <g id="Group" transform="translate(720.016730, 2213.792893)">
                <polygon id="Path" transform="translate(19.983270, 5.560660) scale(-1, 1) rotate(90.000000) translate(-19.983270, -5.560660) " points="22.276163 3 23.6903765 4.41421356 19.9832698 8.12132034 16.276163 4.41421356 17.6903765 3 19.9832698 5.29210678"></polygon>
                <polygon id="Path-Copy-2" transform="translate(19.983270, 19.560660) scale(-1, 1) rotate(90.000000) translate(-19.983270, -19.560660) " points="22.276163 17 23.6903765 18.4142136 19.9832698 22.1213203 16.276163 18.4142136 17.6903765 17 19.9832698 19.2921068"></polygon>
                <polygon id="Path-Copy" transform="translate(14.983270, 12.560660) scale(-1, 1) rotate(90.000000) translate(-14.983270, -12.560660) " points="17.276163 10 18.6903765 11.4142136 14.9832698 15.1213203 11.276163 11.4142136 12.6903765 10 14.9832698 12.2921068"></polygon>
                <path d="M9,4.19037653 C15.5254567,4.19037653 20.8343928,9.39892091 20.9962001,15.8854018 L21,16.1903765 L21,20.2232596 L19,20.223837 L19,16.1903765 C19,10.667529 14.5228475,6.19037653 9,6.19037653 C3.57076009,6.19037653 -0.847931718,10.5170473 -0.996158202,15.9104717 L-1,16.1903765 L-1,19.1903765 L-3,19.1903765 L-3,16.1903765 C-3,9.56295954 2.372583,4.19037653 9,4.19037653 Z" id="Oval" transform="translate(9.000000, 12.207107) rotate(-90.000000) translate(-9.000000, -12.207107) "></path>
                <polygon id="Line-4-Copy" points="15.9832698 11.2071068 15.9832698 13.2071068 4.98326975 13.2071068 4.98326975 11.2071068"></polygon>
                <polygon id="Line-4-Copy-2" points="20.9832698 18.2071068 20.9832698 20.2071068 9.98326975 20.2071068 9.98326975 18.2071068"></polygon>
                <polygon id="Line-4" points="20.9832698 4.20710678 20.9832698 6.20710678 9.98326975 6.20710678 9.98326975 4.20710678"></polygon>
            </g>
        </g>
    </g>
</svg>