<svg xmlns="http://www.w3.org/2000/svg" viewBox="0 0 24 24" width="24px" height="24px" xmlns:xlink="http://www.w3.org/1999/xlink" version="1.1">
    <title>icons / credit limit</title>
    <g id="icons-/-credit-limit" fill="none" fill-rule="evenodd" stroke="none" stroke-width="1">
        <path id="Path-2" fill="#787878" fill-rule="nonzero" d="M 24.2236 16.7236 L 20.2331 1.77409 L -0.223581 7.27636 L 3.76691 22.2259 L 24.2236 16.7236 Z M 18.817 4.225 L 21.776 15.31 L 5.182 19.774 L 2.223 8.689 L 18.817 4.225 Z"/>
        <path id="₹" fill="#787878" fill-rule="nonzero" transform="translate(15 11) rotate(-21) translate(-15 -11)" d="M 16.6829 14 L 14.9431 11.7227 C 14.7561 11.479 14.626 11.3277 14.561 11.2689 C 14.9919 11.1765 15.3415 11 15.6016 10.7311 C 15.7967 10.521 15.9106 10.2689 15.9593 9.96639 L 16.8293 9.96639 L 17 9.44538 L 15.9756 9.44538 C 15.935 9.07563 15.813 8.77311 15.6179 8.52101 L 16.8293 8.52101 L 16.9919 8 L 13.1707 8 L 13 8.52101 L 13.8455 8.52101 C 14.252 8.52101 14.561 8.61345 14.7724 8.80672 C 14.9431 8.95798 15.0488 9.16807 15.0894 9.44538 L 13.1789 9.44538 L 13.0163 9.96639 L 15.0732 9.96639 C 15.0244 10.1849 14.9106 10.3697 14.7317 10.5042 C 14.4715 10.6891 14.0813 10.7899 13.5691 10.7899 L 13.0732 10.7899 L 13.0732 11.4034 C 13.2683 11.4034 13.4472 11.4622 13.6098 11.5714 C 13.748 11.6723 13.8862 11.8151 14.0244 12.0084 L 15.4797 14 L 16.6829 14 Z"/>
        <path id="Path-Copy" fill="#787878" stroke="#787878" stroke-width="2" transform="translate(8.64973 16.2002) rotate(-15) translate(-8.64973 -16.2002)" d="M 6.14973 16.2466 L 11.1497 16.1537 L 6.14973 16.2466 Z"/>
    </g>
</svg>