<svg xmlns="http://www.w3.org/2000/svg" viewBox="0 0 24 24" width="24px" height="24px" xmlns:xlink="http://www.w3.org/1999/xlink" version="1.1">
    <title>icons / rental income</title>
    <g id="icons-/-rental-income" fill="none" fill-rule="evenodd" stroke="none" stroke-width="1">
        <g id="Group-84" transform="translate(5 8)">
            <g id="Group-23"/>
            <path id="₹" fill="#787878" d="M 10.4451 9 L 7.40041 5.58403 C 7.07317 5.21849 6.84553 4.9916 6.73171 4.90336 C 7.48577 4.76471 8.09756 4.5 8.55285 4.09664 C 8.89431 3.78151 9.0935 3.40336 9.17886 2.94958 L 10.7012 2.94958 L 11 2.16807 L 9.20732 2.16807 C 9.13618 1.61345 8.92276 1.15966 8.5813 0.781513 L 10.7012 0.781513 L 10.9858 0 L 4.29878 0 L 4 0.781513 L 5.47967 0.781513 C 6.19106 0.781513 6.73171 0.920168 7.10163 1.21008 C 7.40041 1.43697 7.58537 1.7521 7.6565 2.16807 L 4.31301 2.16807 L 4.02846 2.94958 L 7.62805 2.94958 C 7.54268 3.27731 7.3435 3.55462 7.03049 3.7563 C 6.5752 4.03361 5.89228 4.18487 4.99593 4.18487 L 4.12805 4.18487 L 4.12805 5.10504 C 4.46951 5.10504 4.78252 5.19328 5.06707 5.35714 C 5.30894 5.5084 5.55081 5.72269 5.79268 6.01261 L 8.33943 9 L 10.4451 9 Z"/>
        </g>
        <circle id="Oval" stroke="#787878" stroke-width="2" cx="12" cy="12" r="10"/>
    </g>
</svg>