<svg width="95" height="104" viewBox="0 0 95 104" fill="none" xmlns="http://www.w3.org/2000/svg">
<g style="mix-blend-mode:overlay">
<path d="M27.8174 35.4951C28.0422 35.4021 28.1204 35.407 28.3402 35.3777C33.5632 34.2079 38.9034 33.6794 44.2289 33.7773C52.4078 33.929 60.5476 35.5539 68.1548 38.6177L74.14 7.7594C74.1742 7.593 74.2084 7.4217 74.2523 7.24551C74.2865 7.11336 74.3159 6.9959 74.3452 6.88823C74.5846 4.8669 75.5764 3.10008 77.0226 1.86672C78.5128 0.594217 80.4769 -0.120344 82.5778 0.0166954C84.7227 0.158629 86.6135 1.15706 87.9278 2.65959C89.2421 4.16213 89.9847 6.15898 89.843 8.30756C89.6378 11.4497 87.576 14.117 84.6885 15.1546L75.5666 62.1346C75.1416 64.3125 74.2181 65.4969 72.8843 66.094L81.1609 91.0351C85.0891 88.5586 88.8023 85.6074 92.2224 82.1814C92.8576 81.5452 93.8885 81.5452 94.5236 82.1814C95.1588 82.8177 95.1588 83.8504 94.5236 84.4866C68.5506 110.504 26.4494 110.504 0.476368 84.4866C-0.158789 83.8504 -0.158789 82.8177 0.476368 82.1814C1.11153 81.5452 2.14243 81.5452 2.77759 82.1814C5.83612 85.2452 9.12917 87.9273 12.5981 90.2325L22.5847 63.7937C19.707 63.5196 17.7478 63.2456 17.308 62.9862C14.0932 61.048 13.6486 56.0412 16.4335 53.5451C17.44 52.6397 18.8275 52.0964 20.606 52.1845L31.1496 52.7131L27.2947 38.9701C24.6807 39.6357 22.0961 40.4726 19.5751 41.4808C18.7445 41.8136 17.8015 41.4025 17.4693 40.5705C17.137 39.7385 17.5474 38.7939 18.378 38.4611C21.4561 37.2326 24.6123 36.244 27.8174 35.5V35.4951ZM78.3076 92.7285L69.645 66.6324C68.4187 66.6324 67.036 66.5002 65.5214 66.3583C64.5442 66.2653 63.5035 66.1674 62.3602 66.0989C61.3147 66.0402 59.204 65.9374 56.4093 65.8053C48.377 65.4186 34.8286 64.7726 25.9559 64.0825L15.4123 91.9944C34.7113 103.393 58.7789 103.657 78.3125 92.7334L78.3076 92.7285ZM24.5439 60.8082C24.8127 60.7593 25.0912 60.774 25.3648 60.8669C33.7049 61.4592 48.1865 62.1492 56.5559 62.5506C59.4385 62.6876 61.6127 62.7904 62.5312 62.8442C63.6599 62.9079 64.7787 63.0155 65.8243 63.1183C69.43 63.4609 71.9462 63.7007 72.3713 61.5179L81.6886 13.5444C81.8156 12.8739 82.3384 12.3796 82.9687 12.2523C84.9718 11.851 86.4669 10.1625 86.6037 8.102C86.6868 6.84418 86.2519 5.67445 85.4897 4.80328C84.7275 3.9321 83.6282 3.34968 82.3775 3.26648C81.1462 3.18817 80.003 3.59929 79.1382 4.33832C78.2636 5.08225 77.6724 6.15409 77.56 7.36786C77.5503 7.47554 77.5307 7.58321 77.5014 7.68599H77.5063C77.4281 7.95028 77.389 8.1069 77.3402 8.37119L68.018 56.4181C67.8568 57.2501 67.0946 57.8129 66.264 57.7346L33.5876 56.0951C33.3629 56.1293 33.143 56.1146 32.9329 56.0608L20.4594 55.4343C19.6141 55.3903 19.0083 55.6056 18.6028 55.9678C17.4546 56.9956 17.6647 59.3987 18.9839 60.1964C19.2673 60.3677 21.3877 60.5831 24.5537 60.818L24.5439 60.8082ZM67.5197 41.8723C60.1079 38.8037 52.1586 37.169 44.1752 37.0221C39.5874 36.9389 34.985 37.3452 30.4705 38.2457L34.5794 52.8795L65.0914 54.4114L67.5246 41.8675L67.5197 41.8723Z" fill="white"/>
</g>
</svg>
