<svg xmlns="http://www.w3.org/2000/svg" viewBox="0 0 158.89 133.95"><defs><style>.cls-1,.cls-2{fill:none;stroke-miterlimit:10;stroke-width:3px;}.cls-1{stroke:#832626;}.cls-2{stroke:#f6a31d;}</style></defs><title>flexible_loan_tenuare</title><g id="Flexible_Loan_Tenure" data-name="Flexible Loan Tenure"><rect class="cls-1" x="69.49" y="34.53" width="9.66" height="23.1" rx="2.43" transform="translate(-20.5 -33.12) rotate(0.07)"/><rect class="cls-1" x="121.94" y="34.59" width="9.66" height="23.1" rx="2.43" transform="translate(-20.5 -33.18) rotate(0.07)"/><path class="cls-1" d="M132.89,43l19.91,0s7.95-.16,8,8.91l-.12,104.23s.42,9.27-9.09,9.33L50,165.35s-10.14.14-10.13-9.2L40,74.6l0-19.32S38.22,43.1,50.56,43.11l17.67,0" transform="translate(-20.55 -33.03)"/><path class="cls-1" d="M159.66,54.82l10.74,0s7.5-.13,7.55,7.19l-.11,84.07s.4,7.47-8.56,7.52H159.2" transform="translate(-20.55 -33.03)"/><path class="cls-1" d="M40.34,54.51l-10.74,0s-7.5-.13-7.55,7.23l.11,84.6s-.4,7.53,8.56,7.58H40.8" transform="translate(-20.55 -33.03)"/><line class="cls-1" x1="20.5" y1="42.84" x2="139.16" y2="42.98"/><line class="cls-1" x1="59.42" y1="10.01" x2="100.9" y2="10.06"/><rect class="cls-1" x="112.59" y="93.86" width="8.13" height="8.13" rx="1.25" transform="translate(-20.43 -33.17) rotate(0.07)"/><rect class="cls-1" x="128.74" y="93.88" width="8.13" height="8.13" rx="1.25" transform="translate(-20.43 -33.19) rotate(0.07)"/><rect class="cls-1" x="112.57" y="109.75" width="8.13" height="8.13" rx="1.25" transform="translate(-20.41 -33.17) rotate(0.07)"/><rect class="cls-1" x="128.73" y="109.77" width="8.13" height="8.13" rx="1.25" transform="translate(-20.41 -33.19) rotate(0.07)"/><rect class="cls-1" x="80.19" y="109.71" width="8.13" height="8.13" rx="1.25" transform="translate(-20.41 -33.13) rotate(0.07)"/><rect class="cls-1" x="63.97" y="109.69" width="8.13" height="8.13" rx="1.25" transform="translate(-20.41 -33.11) rotate(0.07)"/><rect class="cls-1" x="96.34" y="109.73" width="8.13" height="8.13" rx="1.25" transform="translate(-20.41 -33.15) rotate(0.07)"/><rect class="cls-2" x="96.36" y="93.64" width="8.13" height="8.13" rx="1.25" transform="translate(-20.43 -33.15) rotate(0.07)"/><rect class="cls-1" x="112.55" y="125.74" width="8.13" height="8.13" rx="1.25" transform="translate(-20.4 -33.17) rotate(0.07)"/><rect class="cls-1" x="128.71" y="125.76" width="8.13" height="8.13" rx="1.25" transform="translate(-20.4 -33.19) rotate(0.07)"/><rect class="cls-1" x="80.17" y="125.7" width="8.13" height="8.13" rx="1.25" transform="translate(-20.4 -33.13) rotate(0.07)"/><rect class="cls-1" x="63.95" y="125.68" width="8.13" height="8.13" rx="1.25" transform="translate(-20.4 -33.11) rotate(0.07)"/><rect class="cls-1" x="96.32" y="125.72" width="8.13" height="8.13" rx="1.25" transform="translate(-20.4 -33.15) rotate(0.07)"/><rect class="cls-1" x="80.15" y="142.05" width="8.13" height="8.13" rx="1.25" transform="translate(-20.38 -33.13) rotate(0.07)"/><rect class="cls-1" x="63.93" y="142.03" width="8.13" height="8.13" rx="1.25" transform="translate(-20.38 -33.11) rotate(0.07)"/><rect class="cls-1" x="96.3" y="142.07" width="8.13" height="8.13" rx="1.25" transform="translate(-20.38 -33.15) rotate(0.07)"/><line class="cls-1" x1="18.2" y1="51.34" x2="1.31" y2="51.34"/><line class="cls-1" x1="156.73" y1="51.34" x2="139.83" y2="51.34"/></g></svg>