<svg xmlns="http://www.w3.org/2000/svg" viewBox="0 0 147.41 159.33"><defs><style>.cls-1,.cls-2{fill:none;stroke-miterlimit:10;stroke-width:3px;}.cls-1{stroke:#832626;}.cls-2{stroke:#f6a31d;}</style></defs><title>flexible_tenure</title><g id="Layer_107" data-name="Layer 107"><rect class="cls-1" x="36.81" y="1.5" width="11.54" height="27.59" rx="2.43"/><rect class="cls-1" x="99.48" y="1.5" width="11.54" height="27.59" rx="2.43"/><path class="cls-1" d="M138.71,31.72H162.5s9.5-.22,9.57,10.62V166.86s.52,11.08-10.84,11.17H39.88s-12.11.19-12.11-11V46.54S25.61,32,40.35,32H61.47" transform="translate(-26.16 -20.21)"/><line class="cls-1" x1="2.88" y1="50.93" x2="144.64" y2="50.93"/><line class="cls-1" x1="49.34" y1="11.65" x2="98.89" y2="11.65"/></g><g id="Layer_108" data-name="Layer 108"><rect class="cls-1" x="88.38" y="72.33" width="9.71" height="9.71" rx="1.25"/><rect class="cls-1" x="107.68" y="72.33" width="9.71" height="9.71" rx="1.25"/><rect class="cls-1" x="88.38" y="91.31" width="9.71" height="9.71" rx="1.25"/><rect class="cls-1" x="107.68" y="91.31" width="9.71" height="9.71" rx="1.25"/><rect class="cls-1" x="49.69" y="91.31" width="9.71" height="9.71" rx="1.25"/><rect class="cls-1" x="30.31" y="91.31" width="9.71" height="9.71" rx="1.25"/><rect class="cls-1" x="68.98" y="91.31" width="9.71" height="9.71" rx="1.25"/><rect class="cls-2" x="68.98" y="72.09" width="9.71" height="9.71" rx="1.25"/><rect class="cls-1" x="88.38" y="110.41" width="9.71" height="9.71" rx="1.25"/><rect class="cls-1" x="107.68" y="110.41" width="9.71" height="9.71" rx="1.25"/><rect class="cls-1" x="49.69" y="110.41" width="9.71" height="9.71" rx="1.25"/><rect class="cls-1" x="30.31" y="110.41" width="9.71" height="9.71" rx="1.25"/><rect class="cls-1" x="68.98" y="110.41" width="9.71" height="9.71" rx="1.25"/><rect class="cls-1" x="49.69" y="129.94" width="9.71" height="9.71" rx="1.25"/><rect class="cls-1" x="30.31" y="129.94" width="9.71" height="9.71" rx="1.25"/><rect class="cls-1" x="68.98" y="129.94" width="9.71" height="9.71" rx="1.25"/></g></svg>