<svg width="91" height="91" viewBox="0 0 91 91" fill="none" xmlns="http://www.w3.org/2000/svg">
<g style="mix-blend-mode:overlay">
<path d="M61.011 35.3785C61.2146 35.3809 61.4161 35.3366 61.6 35.2491L61.6 35.2491L61.6024 35.2478C62.9029 34.5397 64.3489 34.1402 65.8285 34.0803C67.3082 34.0204 68.7817 34.3018 70.1352 34.9025L70.136 34.9029C70.2339 34.9443 70.3363 34.974 70.441 34.9913L70.4413 34.9914C72.6847 35.3504 74.3618 34.8612 75.4016 33.5129L75.4321 33.4734L75.3926 33.4428L73.3799 31.8879L73.3403 31.8573L73.3097 31.897L73.3091 31.8978C73.2285 32.0025 73.0858 32.188 72.7509 32.3187C72.4142 32.4501 71.8783 32.5278 71.0095 32.4027C68.8183 31.4711 66.4023 31.2041 64.0619 31.6338C65.8133 28.4075 66.8264 24.9614 65.2413 21.7673L64.3093 18.4381L64.3093 18.4381L64.3089 18.4367C64.0151 17.4916 64.0297 16.4775 64.3506 15.5412C64.6714 14.6054 65.2815 13.7959 66.0927 13.2297C66.9991 12.676 68.0631 12.4374 69.1191 12.5512C70.1755 12.665 71.1646 13.1249 71.9323 13.8593C72.8142 14.7421 73.3115 15.9376 73.3159 17.1854L73.3161 17.2352H73.3659H75.9087H75.9583L75.9587 17.1857C75.9674 16.1465 75.7522 15.1176 75.3278 14.169C74.9033 13.2205 74.2796 12.3744 73.4989 11.6884C72.7183 11.0025 71.799 10.4927 70.8038 10.1937C69.8085 9.8947 68.7605 9.81357 67.7311 9.9558C66.7016 10.098 65.7149 10.4603 64.838 11.0179C63.9611 11.5756 63.2145 12.3156 62.6491 13.1875C62.0837 14.0594 61.7127 15.0429 61.5614 16.0711C61.41 17.0991 61.4819 18.1477 61.7719 19.1455C61.772 19.1456 61.772 19.1457 61.772 19.1458L62.7394 22.5995C62.7394 22.5996 62.7394 22.5996 62.7394 22.5997C62.7635 22.6871 62.7967 22.7717 62.8385 22.8521C63.4672 24.0685 63.5677 25.4562 63.0957 27.1543C62.6233 28.854 61.5779 30.8624 59.9173 33.3158C59.7826 33.5145 59.7046 33.7461 59.6917 33.9858C59.6787 34.2255 59.7313 34.4642 59.8438 34.6763C59.9563 34.8884 60.1244 35.0658 60.3301 35.1895C60.5357 35.3131 60.7711 35.3785 61.011 35.3785ZM61.011 35.3785C61.0109 35.3785 61.0109 35.3785 61.0108 35.3785L61.0114 35.3285L61.0114 35.3785C61.0113 35.3785 61.0111 35.3785 61.011 35.3785Z" fill="white" stroke="#F8F8F8" stroke-width="0.1"/>
<path d="M72.7726 22.9232V22.8732H72.7226H59.5913H59.5413V22.9232V25.4661V25.5161H59.5913H72.7226H72.7726V25.4661V22.9232Z" fill="white" stroke="#F8F8F8" stroke-width="0.1"/>
<path d="M56.3497 40.6275C59.9124 43.008 64.1009 44.2786 68.3857 44.2786C74.1295 44.2722 79.6362 41.9876 83.6976 37.9262C87.7591 33.8648 90.0436 28.3581 90.05 22.6144C90.05 18.3295 88.7794 14.1409 86.3989 10.5783C84.0184 7.01559 80.6349 4.23882 76.6763 2.59911C72.7177 0.959387 68.3617 0.530362 64.1592 1.36628C59.9568 2.2022 56.0966 4.26553 53.0668 7.29533C50.037 10.3251 47.9736 14.1853 47.1377 18.3878C46.3018 22.5903 46.7308 26.9462 48.3705 30.9049C50.0103 34.8635 52.787 38.247 56.3497 40.6275ZM57.818 6.79856C60.946 4.70845 64.6236 3.59287 68.3857 3.59287C73.4287 3.59857 78.2636 5.60445 81.8296 9.17043C85.3956 12.7364 87.4014 17.5713 87.4072 22.6143C87.4072 26.3764 86.2916 30.054 84.2015 33.182C82.1114 36.3101 79.1406 38.7481 75.6649 40.1878C72.1892 41.6275 68.3646 42.0042 64.6748 41.2702C60.985 40.5363 57.5957 38.7247 54.9355 36.0645C52.2753 33.4043 50.4637 30.015 49.7298 26.3252C48.9958 22.6354 49.3725 18.8108 50.8122 15.3351C52.2519 11.8594 54.6899 8.88866 57.818 6.79856ZM10.5783 86.3989C14.1409 88.7794 18.3295 90.05 22.6143 90.05C28.3581 90.0436 33.8648 87.7591 37.9262 83.6976C41.9876 79.6362 44.2722 74.1295 44.2786 68.3858C44.2786 64.1009 43.008 59.9124 40.6275 56.3497C38.247 52.787 34.8635 50.0103 30.9049 48.3705C26.9462 46.7308 22.5903 46.3018 18.3878 47.1377C14.1853 47.9736 10.3251 50.037 7.29533 53.0668C4.26553 56.0966 2.2022 59.9568 1.36628 64.1592C0.530362 68.3617 0.959387 72.7177 2.59911 76.6763C4.23882 80.6349 7.01559 84.0184 10.5783 86.3989ZM12.0466 52.57C15.1746 50.4799 18.8522 49.3643 22.6143 49.3643C27.6573 49.37 32.4922 51.3759 36.0582 54.9419C39.6241 58.5078 41.63 63.3427 41.6357 68.3857C41.6357 72.1478 40.5201 75.8254 38.43 78.9535C36.3399 82.0815 33.3692 84.5195 29.8935 85.9592C26.4178 87.3989 22.5932 87.7756 18.9034 87.0417C15.2136 86.3077 11.8243 84.4961 9.16411 81.8359C6.50392 79.1757 4.6923 75.7864 3.95836 72.0966C3.22441 68.4068 3.6011 64.5823 5.04079 61.1065C6.48047 57.6308 8.9185 54.6601 12.0466 52.57Z" fill="white" stroke="#F8F8F8" stroke-width="0.1"/>
<path d="M22.614 67.3117C22.8183 67.3128 23.02 67.2664 23.2034 67.1764C23.3868 67.0863 23.5469 66.9548 23.6709 66.7924L23.671 66.7924L31.5271 56.4722L31.5574 56.4324L31.5176 56.4021L29.4948 54.8611L29.455 54.8308L29.4247 54.8706L22.614 63.81L15.797 54.8706L15.7667 54.8309L15.7269 54.8611L13.7041 56.4021L13.6643 56.4324L13.6946 56.4722L21.5571 66.7924L21.5572 66.7924C21.6812 66.9548 21.8412 67.0863 22.0247 67.1764C22.208 67.2664 22.4098 67.3128 22.614 67.3117ZM22.614 67.3117C22.6139 67.3117 22.6139 67.3117 22.6138 67.3117L22.614 67.2617L22.6143 67.3117C22.6142 67.3117 22.6141 67.3117 22.614 67.3117ZM22.614 63.8925L22.6455 63.8512L22.5826 63.8512L22.614 63.8925Z" fill="white" stroke="#F8F8F8" stroke-width="0.1"/>
<path d="M30.0346 66.5612V66.5112H29.9846H15.2437H15.1937V66.5612V69.104V69.154H15.2437H29.9846H30.0346V69.104V66.5612Z" fill="white" stroke="#F8F8F8" stroke-width="0.1"/>
<path d="M30.0346 72.2598V72.2098H29.9846H15.2437H15.1937V72.2598V74.8026V74.8526H15.2437H29.9846H30.0346V74.8026V72.2598Z" fill="white" stroke="#F8F8F8" stroke-width="0.1"/>
<path d="M23.9356 65.9904V65.9404H23.8856H21.3428H21.2928V65.9904V81.1001V81.1501H21.3428H23.8856H23.9356V81.1001V65.9904Z" fill="white" stroke="#F8F8F8" stroke-width="0.1"/>
<path d="M56.3497 86.3989C59.9124 88.7794 64.101 90.05 68.3858 90.05C74.1296 90.0435 79.6362 87.759 83.6977 83.6976C87.7591 79.6361 90.0437 74.1295 90.0501 68.3857C90.0501 64.1009 88.7795 59.9123 86.399 56.3496C84.0185 52.787 80.635 50.0102 76.6763 48.3705C72.7177 46.7308 68.3617 46.3017 64.1593 47.1377C59.9568 47.9736 56.0966 50.0369 53.0668 53.0667C50.037 56.0965 47.9737 59.9567 47.1378 64.1592C46.3018 68.3616 46.7309 72.7176 48.3706 76.6762C50.0103 80.6349 52.7871 84.0184 56.3497 86.3989ZM57.818 52.5699C60.9461 50.4798 64.6237 49.3643 68.3857 49.3642C73.4288 49.37 78.2637 51.3758 81.8296 54.9418C85.3956 58.5078 87.4015 63.3427 87.4072 68.3857C87.4072 72.1478 86.2916 75.8254 84.2015 78.9534C82.1114 82.0815 79.1407 84.5195 75.665 85.9592C72.1893 87.3989 68.3647 87.7756 64.6749 87.0416C60.9851 86.3077 57.5958 84.4961 54.9356 81.8359C52.2754 79.1757 50.4638 75.7864 49.7298 72.0966C48.9959 68.4068 49.3726 64.5822 50.8123 61.1065C52.252 57.6308 54.69 54.66 57.818 52.5699Z" fill="white" stroke="#F8F8F8" stroke-width="0.1"/>
<path d="M78.309 61.9916L78.3547 61.9713L78.3344 61.9256C76.6072 58.0426 73.3932 55.6214 69.9354 55.6214C67.2503 55.6214 64.8187 57.0544 63.0601 59.3636C61.3015 61.6727 60.2137 64.8603 60.2137 68.3781C60.2137 71.8959 61.3015 75.0873 63.0601 77.4002C64.8187 79.7132 67.2502 81.15 69.9354 81.15C73.3881 81.15 76.6021 78.7289 78.3268 74.8458L78.3471 74.8001L78.3014 74.7798L75.9785 73.7474L75.9328 73.7271L75.9125 73.7728C74.5912 76.746 72.3538 78.5072 69.9354 78.5072C67.9907 78.5072 66.2221 77.3757 64.9377 75.5406C63.6534 73.7058 62.8565 71.1713 62.8565 68.3781C62.8565 65.5849 63.6534 63.0543 64.9377 61.2232C66.2221 59.392 67.9906 58.2643 69.9354 58.2643C72.3208 58.2643 74.6179 60.0713 75.9189 62.9987L75.9392 63.0443L75.9848 63.024L78.309 61.9916Z" fill="white" stroke="#F8F8F8" stroke-width="0.1"/>
<path d="M71.4556 64.2536V64.2036H71.4056H57.1021H57.0521V64.2536V66.7964V66.8464H57.1021H71.4056H71.4556V66.7964V64.2536Z" fill="white" stroke="#F8F8F8" stroke-width="0.1"/>
<path d="M71.4556 69.975V69.925H71.4056H57.1021H57.0521V69.975V72.5179V72.5679H57.1021H71.4056H71.4556V72.5179V69.975Z" fill="white" stroke="#F8F8F8" stroke-width="0.1"/>
<path d="M10.5783 40.6275C14.1409 43.008 18.3295 44.2786 22.6143 44.2786C28.3581 44.2722 33.8648 41.9876 37.9262 37.9262C41.9876 33.8648 44.2722 28.3581 44.2786 22.6144C44.2786 18.3295 43.008 14.1409 40.6275 10.5783C38.247 7.01559 34.8635 4.23882 30.9049 2.59911C26.9462 0.959387 22.5903 0.530362 18.3878 1.36628C14.1853 2.2022 10.3251 4.26553 7.29533 7.29533C4.26553 10.3251 2.2022 14.1853 1.36628 18.3878C0.530362 22.5903 0.959387 26.9462 2.59911 30.9049C4.23882 34.8635 7.01559 38.247 10.5783 40.6275ZM12.0466 6.79856C15.1746 4.70846 18.8522 3.59288 22.6142 3.59287C27.6573 3.59857 32.4922 5.60445 36.0582 9.17043C39.6241 12.7364 41.63 17.5713 41.6357 22.6143C41.6357 26.3764 40.5201 30.054 38.43 33.182C36.3399 36.3101 33.3692 38.7481 29.8935 40.1878C26.4178 41.6275 22.5932 42.0042 18.9034 41.2702C15.2136 40.5363 11.8243 38.7247 9.16411 36.0645C6.50392 33.4043 4.6923 30.015 3.95836 26.3252C3.22441 22.6354 3.6011 18.8108 5.04079 15.3351C6.48047 11.8594 8.9185 8.88866 12.0466 6.79856Z" fill="white" stroke="#F8F8F8" stroke-width="0.1"/>
<path d="M23.9356 9.28598V9.23598H23.8856H21.3428H21.2928V9.28598V13.0087V13.0587H21.3428H23.8856H23.9356V13.0087V9.28598Z" fill="white" stroke="#F8F8F8" stroke-width="0.1"/>
<path d="M23.9356 32.164V32.114H23.8856H21.3428H21.2928V32.164V35.944V35.994H21.3428H23.8856H23.9356V35.944V32.164Z" fill="white" stroke="#F8F8F8" stroke-width="0.1"/>
<path d="M16.2573 27.4123H16.2062L16.2073 27.4634C16.2453 29.1262 16.9414 30.7059 18.1427 31.8561C19.3437 33.0059 20.9517 33.6326 22.614 33.5986C23.4409 33.6322 24.2661 33.4984 25.0401 33.2053C25.8145 32.9119 26.5217 32.4651 27.1191 31.8916C27.7165 31.3181 28.1918 30.6298 28.5165 29.868C28.8413 29.1062 29.0086 28.2866 29.0086 27.4584C29.0086 26.6303 28.8413 25.8107 28.5165 25.0489C28.1918 24.2871 27.7165 23.5988 27.1191 23.0253C26.5217 22.4518 25.8145 22.0049 25.0401 21.7116C24.266 21.4184 23.4406 21.2846 22.6135 21.3183C21.8585 21.3162 21.1215 21.0871 20.4983 20.6607C19.8748 20.2341 19.3941 19.6297 19.1188 18.9263C18.8434 18.2228 18.786 17.4528 18.9541 16.7163C19.1222 15.9798 19.5081 15.3109 20.0615 14.7966C20.6148 14.2824 21.3101 13.9465 22.057 13.8327C22.8038 13.7189 23.5676 13.8324 24.249 14.1586C24.9304 14.4847 25.498 15.0083 25.8778 15.6613C26.2577 16.3143 26.4323 17.0665 26.3789 17.82L26.3751 17.8736H26.4288H28.9716H29.0216L29.0216 17.8236C29.0223 16.619 28.6689 15.4407 28.0055 14.4352C27.3421 13.4298 26.3979 12.6414 25.2902 12.1681C24.1824 11.6948 22.96 11.5574 21.7749 11.773C20.5897 11.9886 19.494 12.5478 18.624 13.3809C17.754 14.214 17.1479 15.2845 16.8812 16.4592C16.6145 17.6339 16.6988 18.8611 17.1237 19.9883C17.5486 21.1155 18.2953 22.093 19.2712 22.7993C20.247 23.5056 21.4088 23.9096 22.6123 23.9611L22.6123 23.9611L22.6143 23.9612C23.3695 23.963 24.1067 24.1919 24.7301 24.6181C25.3535 25.0444 25.8343 25.6483 26.1099 26.3514C26.3856 27.0545 26.4434 27.8242 26.2758 28.5606C26.1083 29.297 25.7231 29.9659 25.1704 30.4805C24.6176 30.9951 23.9229 31.3316 23.1765 31.4461C22.43 31.5607 21.6663 31.4481 20.9847 31.123C20.3031 30.7978 19.735 30.2752 19.3544 29.623C18.9737 28.9708 18.798 28.2191 18.8501 27.4657L18.8538 27.4123H18.8002H16.2573Z" fill="white" stroke="#F8F8F8" stroke-width="0.1"/>
</g>
</svg>
