<svg xmlns="http://www.w3.org/2000/svg" viewBox="0 0 160.24 160.24"><defs><style>.cls-1,.cls-3{fill:none;stroke:#832626;stroke-miterlimit:10;}.cls-1{stroke-width:3px;}.cls-2{fill:#f5a31d;}.cls-3{stroke-width:4px;}</style></defs><title>rate_of_interest</title><g id="rate_of_interest" data-name="rate of interest"><circle class="cls-1" cx="80.12" cy="80.12" r="78.62"/><path class="cls-2" d="M84.6,85.08A12.92,12.92,0,1,0,69.64,75,12.79,12.79,0,0,0,84.6,85.08ZM80.2,63.51a9.1,9.1,0,1,1-6.81,10.67A9,9,0,0,1,80.2,63.51Z" transform="translate(-19.88 -19.88)"/><path class="cls-2" d="M119.29,137.29a13,13,0,1,0-15-10.19A12.86,12.86,0,0,0,119.29,137.29Zm-4.42-21.68A9.14,9.14,0,1,1,108,126.33,9,9,0,0,1,114.87,115.61Z" transform="translate(-19.88 -19.88)"/><line class="cls-3" x1="50.56" y1="118.17" x2="108.34" y2="41.41"/></g></svg>