<svg width="116" height="116" viewBox="0 0 116 116" fill="none" xmlns="http://www.w3.org/2000/svg">
<g style="mix-blend-mode:overlay" clip-path="url(#clip0_3189_5995)">
<path d="M70.5573 37.12C67.5235 40.6892 63.062 42.8308 58.2435 42.8308C49.3204 42.8308 42.182 35.5138 42.182 26.7692C42.182 18.0246 49.4989 10.7077 58.2435 10.7077C58.9573 10.7077 59.4927 10.7077 60.2066 10.8861L68.9512 2.14153L107.142 6.78152V2.14153H119.277V4.81845H109.819V32.48H117.314V35.1569H107.142V30.5169H105L102.502 33.1938C100.36 35.6923 97.1481 37.12 93.7573 37.12H70.5573ZM44.8589 26.7692C44.8589 34.2646 50.9266 40.1538 58.2435 40.1538C61.4558 40.1538 64.3112 39.0831 66.8096 37.12H63.2404V35.6923C63.2404 30.8738 66.9881 26.9477 71.8066 26.5908C71.8066 19.2738 65.7389 13.2061 58.422 13.2061C50.9266 13.2061 44.8589 19.2738 44.8589 26.7692ZM74.4835 26.5908H77.6958C79.302 26.5908 80.7296 26.0554 81.8004 24.8061C82.1573 24.4492 82.3358 24.0923 82.3358 23.5569C82.3358 23.2 82.1573 22.6646 81.8004 22.3077L73.5912 14.0984L71.0927 16.9538C73.0558 19.6308 74.305 22.8431 74.4835 26.5908ZM100.36 31.4092L103.573 27.84H107.142V9.45845L69.8435 4.81845L63.2404 11.4215C65.5604 12.1354 67.5235 13.3846 69.1296 14.9908L73.4127 10.7077L83.585 20.5231C84.4773 21.4154 84.8343 22.4861 84.8343 23.5569C84.8343 24.6277 84.2989 25.8769 83.585 26.5908C81.9789 28.1969 79.8373 29.0892 77.5173 29.0892H72.342C69.1297 29.0892 66.4527 31.4092 65.9173 34.2646H93.7573C96.2558 34.4431 98.7543 33.3723 100.36 31.4092Z" fill="white"/>
<path d="M31.62 70.4923L30.9061 67.9938C30.7277 67.9938 27.5153 68.8861 26.2661 72.6338L28.7646 73.3477C29.6569 71.2061 31.62 70.4923 31.62 70.4923Z" fill="white"/>
<path d="M105.325 79.7723C104.075 76.9169 100.863 75.4892 98.0076 76.56C95.8661 77.4523 94.7953 79.7723 95.6876 81.9139L98.1861 80.8431C97.8292 80.1292 98.1861 79.2369 99.0784 78.88C100.685 78.3446 102.291 79.0585 103.005 80.4862C103.54 81.7354 103.54 83.3415 103.005 84.5908C102.469 85.84 101.398 86.9108 100.149 87.4462C95.6876 89.2308 90.5123 87.0892 88.5492 82.6277V82.0923C88.5492 72.2769 85.8723 67.8154 81.2323 63.1754C80.34 62.1046 79.0907 61.3908 78.02 60.4985L78.5553 52.6462C78.5553 52.1108 78.3769 51.5754 77.8415 51.2185L76.9492 50.8615L70.3461 56.0369C65.1707 53.8954 59.2815 52.6462 53.2138 52.6462C46.7892 52.6462 40.7215 53.8954 35.3676 56.3939L29.1215 51.9323C28.5861 51.5754 28.0507 51.5754 27.5153 51.7538L26.623 52.2892L27.1584 61.0339C24.4815 62.9969 22.34 65.4954 20.7338 68.5292C20.3769 69.2431 20.02 69.7785 19.663 70.4923C18.9492 71.5631 18.0569 72.0985 16.9861 72.0985H13.2384C11.0969 72.0985 9.49072 73.8831 9.49072 75.8462V79.5938C9.49072 81.7354 11.2753 83.3415 13.2384 83.3415C15.38 83.3415 17.343 85.4831 18.4138 88.8738C18.4138 89.0523 18.5923 89.2308 18.5923 89.4092C19.8415 93.1569 21.983 96.7262 24.8384 99.5815C25.7307 100.474 26.623 101.188 27.5153 101.902L27.8723 102.258C28.943 103.151 31.9769 105.828 32.3338 109.04C32.8692 113.68 35.903 113.858 37.8661 113.858H38.4015C40.543 113.858 43.7553 112.966 44.8261 107.612H60.8876C61.2446 109.575 61.9584 111.182 63.0292 112.252C64.1 113.323 65.5276 113.858 67.1338 113.858H67.6692C69.6323 113.858 72.6661 113.68 73.2015 109.04C73.7369 105.292 77.663 102.437 77.663 102.258L78.02 101.902C83.0169 98.1538 86.4076 92.8 87.4784 86.9108C89.62 89.4092 92.8323 90.8369 96.223 90.8369C97.6507 90.8369 99.0784 90.48 100.506 89.9446C102.469 89.0523 104.075 87.6246 104.968 85.6615C106.038 83.8769 106.038 81.7354 105.325 79.7723ZM76.7707 99.9385L76.4138 100.117C76.2353 100.295 71.4169 103.865 70.8815 108.683C70.5246 111.003 69.8107 111.003 68.0261 111.182H67.6692C66.5984 111.182 65.8846 111.003 65.1707 110.289C64.1 109.218 63.3861 107.077 63.3861 103.865H60.7092V104.935H45.183V103.865H42.5061V105.471C42.1492 111.182 39.2938 111.182 38.4015 111.003H38.0446C36.0815 111.003 35.3676 111.003 35.1892 108.505C34.6538 103.686 29.8353 100.117 29.6569 99.9385H29.1215C28.2292 99.2246 27.5153 98.6892 26.8015 97.7969C24.303 95.2985 22.34 92.0862 21.2692 88.6954C21.2692 88.5169 21.0907 88.16 21.0907 87.9815C19.663 83.52 16.6292 80.6646 13.4169 80.6646C12.8815 80.6646 12.3461 80.1292 12.3461 79.5938V75.8462C12.3461 75.3108 12.8815 74.7754 13.4169 74.7754H17.1646C18.9492 74.7754 20.7338 73.7046 21.983 71.92C22.1615 71.5631 22.5184 71.2062 22.6969 70.8492C22.6969 70.6708 22.8753 70.4923 22.8753 70.4923C23.0538 70.3139 23.0538 69.9569 23.2323 69.7785C24.303 67.8154 25.9092 66.0308 27.5153 64.4246V65.1385L30.1923 64.96L29.4784 55.8585L37.3307 61.9262L38.9369 59.7846L37.1523 58.3569C41.9707 56.3939 47.1461 55.5015 52.6784 55.5015C57.8538 55.5015 62.8507 56.3938 67.3123 58L65.7061 59.2492L67.3123 61.3908L75.5215 55.3231L74.8076 64.4246L77.4846 64.6031V63.7108C78.02 64.0677 78.5553 64.6031 79.0907 65.1385C83.3738 69.4215 85.5153 73.3477 85.5153 82.2708C85.5153 89.2308 82.303 95.8339 76.7707 99.9385Z" fill="white"/>
<path d="M47.1465 60.4985L47.6819 63.1754C47.6819 63.1754 56.4265 61.3908 62.8511 64.4246L63.9219 61.9262C56.7834 58.5354 47.5034 60.4985 47.1465 60.4985Z" fill="white"/>
</g>
<defs>
<clipPath id="clip0_3189_5995">
<rect width="116" height="116" fill="white"/>
</clipPath>
</defs>
</svg>
