<svg width="98" height="100" viewBox="0 0 98 100" fill="none" xmlns="http://www.w3.org/2000/svg">
<g style="mix-blend-mode:overlay">
<path d="M2 2H96V86.4233H2V2ZM17.0036 86.4233H29.0036V98.4865H17.0036V86.4233ZM58.9988 86.4233H71.0012V98.4865H58.9988V86.4233Z" stroke="white" stroke-width="2.75" stroke-miterlimit="10" stroke-linecap="round" stroke-linejoin="round"/>
<path d="M20.1621 20.1622H67.5828V67.8378H20.1621V20.1622ZM67.5828 26.1204H73.5135V38.0405H67.5828V26.1204ZM67.5828 49.9619H73.5135V61.8784H67.5828V49.9619Z" stroke="white" stroke-width="2.75" stroke-miterlimit="10" stroke-linecap="round" stroke-linejoin="round"/>
<path d="M44.0039 43.9981L51.8058 36.1937M56.4866 43.9981C56.4866 50.8935 50.8953 56.4865 44.0039 56.4865C37.1025 56.4865 31.5137 50.8935 31.5137 43.9981C31.5137 37.1015 37.1037 31.5135 44.0039 31.5135C50.8953 31.5135 56.4866 37.1015 56.4866 43.9981Z" stroke="white" stroke-width="2.75" stroke-miterlimit="10" stroke-linecap="round" stroke-linejoin="round"/>
</g>
</svg>
